<?xml version="1.0" standalone="no"?>
<!DOCTYPE svg PUBLIC "-//W3C//DTD SVG 20010904//EN"
 "http://www.w3.org/TR/2001/REC-SVG-20010904/DTD/svg10.dtd">
<svg version="1.0" xmlns="http://www.w3.org/2000/svg"
 width="1024.000000pt" height="1024.000000pt" viewBox="0 0 1024.000000 1024.000000"
 preserveAspectRatio="xMidYMid meet">

<g transform="translate(0.000000,1024.000000) scale(0.100000,-0.100000)"
fill="#000000" stroke="none">
<path d="M2518 7095 c-91 -25 -172 -95 -209 -182 -18 -43 -19 -80 -19 -1129
l0 -1083 24 -53 c41 -90 106 -146 200 -173 143 -41 293 27 368 167 23 42 23
50 28 448 l5 405 569 3 c449 2 571 0 578 -10 4 -7 8 -187 8 -400 l0 -387 24
-53 c30 -66 95 -130 161 -160 72 -32 180 -31 255 4 60 27 116 83 152 150 l23
43 0 1100 0 1100 -23 42 c-48 92 -121 147 -229 174 -121 30 -278 -50 -336
-171 -21 -43 -22 -61 -27 -420 -3 -206 -7 -376 -8 -378 -1 -1 -260 -1 -574 0
l-573 3 -5 375 -5 375 -29 50 c-52 90 -109 134 -208 161 -63 16 -88 16 -150
-1z"/>
<path d="M5808 7096 c-100 -18 -186 -65 -255 -139 -33 -35 -69 -84 -80 -109
-26 -54 -53 -155 -53 -196 0 -42 -25 -97 -56 -121 -30 -24 -78 -38 -161 -49
l-58 -7 47 -23 c34 -16 66 -22 113 -22 36 0 65 -4 65 -9 0 -17 -76 -45 -139
-50 l-65 -6 32 -37 c35 -39 111 -66 155 -54 12 3 29 1 37 -4 22 -14 -14 -25
-76 -24 -60 0 -58 -4 30 -60 101 -64 269 -106 427 -106 189 1 329 58 442 180
95 102 127 194 127 363 0 105 -3 126 -26 185 -61 154 -187 256 -356 288 -40 8
-75 13 -78 13 -3 -1 -35 -7 -72 -13z"/>
<path d="M7368 7096 c-173 -32 -311 -157 -367 -335 -6 -19 -11 -72 -11 -119 0
-179 95 -334 251 -411 257 -126 561 4 649 279 21 63 19 212 -3 277 -52 151
-189 274 -337 303 -86 17 -115 18 -182 6z"/>
<path d="M7091 6021 c-56 -23 -116 -73 -138 -114 -20 -38 -22 -126 -5 -212 6
-33 19 -98 27 -145 17 -94 28 -157 44 -240 11 -54 31 -169 52 -285 6 -33 14
-80 19 -105 5 -25 16 -88 25 -140 21 -122 48 -189 96 -244 54 -61 103 -76 244
-76 100 0 116 3 164 26 53 27 100 79 125 139 7 17 20 73 30 125 9 52 21 113
26 135 5 22 13 67 19 100 6 33 16 87 21 120 22 124 45 246 65 355 9 47 20 110
25 140 5 30 16 91 25 135 13 71 13 86 0 132 -20 70 -61 114 -137 148 l-63 28
-60 -22 c-174 -66 -313 -67 -475 -6 -68 25 -81 26 -129 6z"/>
<path d="M6100 5937 c-89 -44 -246 -71 -375 -64 -55 3 -108 9 -117 12 -21 8
-36 -19 -48 -83 -7 -42 -45 -253 -70 -389 -6 -29 -14 -77 -20 -105 -5 -29 -16
-91 -25 -138 -9 -47 -20 -110 -25 -140 -5 -30 -17 -91 -25 -135 -21 -106 -29
-205 -21 -250 10 -53 86 -126 162 -156 57 -23 68 -24 339 -24 206 0 291 4 320
13 113 38 176 91 196 167 12 43 7 113 -17 235 -8 41 -19 100 -24 130 -19 105
-41 225 -51 285 -6 33 -15 80 -20 105 -5 25 -16 86 -25 135 -33 187 -37 212
-56 289 -19 83 -40 126 -61 126 -6 0 -23 -6 -37 -13z"/>
<path d="M7512 4076 c-82 -21 -142 -63 -174 -125 -72 -137 -4 -289 162 -363
217 -97 255 -121 265 -166 10 -47 -10 -81 -61 -104 -43 -18 -59 -20 -188 -14
-78 3 -152 7 -166 7 -47 2 -78 -72 -47 -112 20 -26 49 -37 143 -53 275 -49
479 33 513 204 19 95 -9 175 -83 243 -28 25 -76 50 -282 148 -71 34 -102 78
-85 123 22 55 106 73 261 55 110 -12 110 -12 135 11 43 40 30 98 -28 124 -77
35 -264 46 -365 22z"/>
<path d="M2440 4070 c-79 -12 -105 -29 -137 -87 -10 -17 -13 -117 -13 -403 l0
-381 25 -24 c37 -38 98 -35 136 6 l29 31 2 156 3 157 155 3 c91 1 164 7 177
13 63 33 47 129 -24 148 -21 6 -100 11 -175 11 l-138 0 0 88 c0 125 -10 120
232 124 186 3 199 4 219 24 28 29 28 89 0 118 -21 20 -32 21 -234 22 -116 1
-232 -1 -257 -6z"/>
<path d="M3260 4071 c-53 -8 -77 -20 -106 -53 -41 -45 -44 -75 -44 -451 l0
-361 27 -28 c37 -39 103 -40 138 -2 24 25 25 33 27 188 l3 161 71 3 72 3 43
-83 c23 -46 63 -122 88 -171 66 -129 66 -128 169 -125 86 3 87 3 90 30 2 20
-23 73 -94 194 -77 131 -94 168 -83 175 8 5 17 9 22 9 4 0 28 10 53 21 91 43
138 167 110 289 -23 98 -79 152 -196 188 -43 14 -329 23 -390 13z m342 -175
c43 -21 63 -65 53 -120 -8 -43 -38 -71 -90 -85 -42 -12 -223 -15 -249 -5 -13
5 -16 23 -16 91 0 80 10 118 34 136 6 4 61 6 121 5 80 -3 120 -9 147 -22z"/>
<path d="M4133 4073 c-13 -2 -32 -16 -43 -30 -19 -25 -20 -40 -20 -433 l0
-407 25 -27 c35 -38 101 -37 138 2 l27 28 0 405 c0 398 0 406 -21 428 -20 21
-62 43 -77 40 -4 -1 -17 -4 -29 -6z"/>
<path d="M4650 4071 c-57 -8 -102 -35 -126 -75 -18 -29 -19 -56 -19 -387 l0
-356 27 -35 c49 -65 66 -68 345 -68 248 0 250 0 271 23 27 29 28 74 2 107 -19
25 -20 25 -224 30 -142 3 -209 9 -217 17 -8 8 -13 47 -13 105 l-1 93 154 3
c134 2 157 5 181 22 32 23 44 58 30 94 -16 43 -44 51 -210 56 l-155 5 1 89 c1
74 4 91 19 103 14 10 64 13 203 13 185 0 213 5 239 39 21 28 15 75 -13 102
-25 24 -28 24 -237 25 -117 1 -232 -1 -257 -5z"/>
<path d="M5480 4074 c-52 -10 -79 -27 -94 -59 -14 -28 -16 -89 -16 -424 l0
-392 25 -24 c18 -19 35 -25 65 -25 30 0 47 6 65 25 l25 24 0 320 c0 176 4 322
9 325 16 10 40 -20 71 -94 18 -41 48 -108 66 -148 19 -41 34 -75 34 -77 0 -6
50 -115 100 -220 21 -44 55 -96 75 -115 34 -33 40 -35 118 -39 63 -2 88 1 113
14 58 31 59 34 62 457 l3 387 -29 32 c-24 27 -35 31 -72 31 -37 -1 -49 -6 -67
-29 -23 -28 -23 -31 -23 -344 0 -270 -2 -318 -15 -323 -10 -4 -25 18 -55 80
-22 46 -40 86 -40 89 0 2 -18 43 -40 90 -22 47 -40 88 -40 90 0 3 -14 35 -31
72 -86 191 -113 234 -159 258 -30 16 -112 26 -150 19z"/>
<path d="M6572 4073 c-90 -9 -146 -65 -157 -156 -4 -29 -5 -187 -3 -352 3
-343 5 -351 88 -392 40 -21 59 -23 190 -23 243 0 353 43 425 165 81 138 86
425 10 574 -41 81 -120 139 -230 169 -45 13 -257 22 -323 15z m322 -197 c67
-50 81 -98 81 -266 0 -173 -15 -220 -85 -266 -36 -24 -55 -29 -130 -32 -122
-6 -137 -1 -150 49 -17 60 -9 496 8 528 13 22 17 23 126 20 106 -4 115 -6 150
-33z"/>
</g>
</svg>
