<?xml version="1.0" standalone="no"?>
<!DOCTYPE svg PUBLIC "-//W3C//DTD SVG 20010904//EN"
 "http://www.w3.org/TR/2001/REC-SVG-20010904/DTD/svg10.dtd">
<svg version="1.0" xmlns="http://www.w3.org/2000/svg"
 width="600.000000pt" height="586.000000pt" viewBox="0 0 600.000000 586.000000"
 preserveAspectRatio="xMidYMid meet">

<g transform="translate(0.000000,586.000000) scale(0.100000,-0.100000)"
fill="#000000" stroke="none">
<path d="M1496 4055 c-50 -18 -94 -60 -107 -105 -6 -23 -9 -252 -7 -661 l3
-626 28 -36 c69 -90 188 -98 268 -18 20 20 42 54 48 76 6 23 11 128 11 253 l0
212 328 -2 327 -3 5 -242 c6 -267 6 -270 78 -319 96 -66 239 -12 271 101 15
56 15 1194 0 1250 -32 113 -175 167 -271 101 -71 -48 -73 -53 -76 -302 l-3
-224 -330 0 -329 0 0 193 c0 105 -5 209 -10 229 -14 50 -55 97 -105 119 -48
22 -77 23 -129 4z"/>
<path d="M3382 4060 c-55 -11 -100 -39 -146 -90 -34 -38 -56 -94 -70 -181 -8
-47 -25 -60 -94 -75 -56 -11 -56 -12 -29 -23 16 -6 47 -11 70 -11 41 -1 42 -1
17 -15 -14 -8 -42 -14 -62 -15 -21 0 -38 -4 -38 -9 0 -21 54 -51 94 -52 37 0
39 -1 16 -10 -14 -6 -33 -8 -42 -5 -28 7 -12 -10 36 -38 108 -63 295 -74 399
-22 67 33 130 100 151 163 18 53 21 150 6 205 -34 119 -180 203 -308 178z"/>
<path d="M4273 4061 c-48 -12 -120 -58 -147 -94 -80 -105 -74 -255 14 -346 54
-56 94 -74 175 -79 58 -4 80 0 123 18 58 25 113 80 138 137 25 58 23 158 -5
215 -25 52 -87 113 -135 133 -43 18 -123 26 -163 16z"/>
<path d="M4112 3439 c-48 -24 -72 -61 -72 -114 0 -65 111 -648 131 -690 32
-66 60 -80 161 -80 98 0 128 14 160 77 11 20 44 175 80 373 l61 339 -19 35
c-12 23 -35 44 -64 58 l-45 22 -55 -19 c-73 -25 -165 -25 -237 0 -32 11 -57
20 -58 20 0 0 -19 -10 -43 -21z"/>
<path d="M3530 3387 c-42 -16 -80 -21 -162 -21 -99 -1 -107 -3 -112 -21 -2
-11 -30 -161 -61 -333 -37 -205 -55 -325 -51 -347 9 -49 62 -91 132 -105 35
-7 111 -11 193 -8 117 3 143 7 184 27 53 26 77 61 77 113 0 39 -105 627 -121
675 -6 18 -14 34 -17 36 -4 2 -32 -5 -62 -16z"/>
<path d="M4333 2321 c-93 -44 -110 -156 -33 -226 12 -11 62 -40 112 -65 102
-50 120 -73 88 -112 -17 -21 -26 -23 -129 -23 -119 0 -138 -7 -127 -48 8 -34
59 -50 161 -51 134 -2 208 41 222 128 7 47 -13 101 -50 132 -18 15 -69 44
-114 65 -81 37 -108 63 -97 93 10 26 67 38 144 30 75 -7 100 2 100 37 0 35
-46 53 -144 56 -74 3 -99 0 -133 -16z"/>
<path d="M1424 2318 c-39 -18 -44 -49 -44 -273 0 -231 3 -245 54 -245 44 0 56
28 56 128 l0 92 95 0 c88 0 96 2 110 24 34 52 -6 76 -126 76 l-79 0 0 48 c0
26 5 53 12 60 8 8 50 12 123 12 117 0 135 6 135 45 0 41 -17 45 -170 44 -80 0
-155 -5 -166 -11z"/>
<path d="M1884 2307 l-29 -25 -3 -222 c-3 -198 -1 -224 14 -241 22 -24 56 -24
77 -1 13 15 17 39 17 110 l0 92 43 0 42 0 55 -108 55 -107 53 -3 c73 -4 75 10
14 116 -28 48 -52 93 -54 99 -2 7 12 20 31 30 53 28 75 65 75 126 0 29 -8 66
-17 84 -29 55 -65 67 -213 71 -128 4 -131 3 -160 -21z m254 -83 c15 -10 22
-25 22 -49 0 -50 -28 -65 -122 -65 l-78 0 0 49 c0 79 2 81 84 81 49 0 79 -5
94 -16z"/>
<path d="M2412 2318 c-9 -9 -12 -78 -12 -249 0 -203 2 -240 16 -253 21 -21 57
-20 77 2 15 16 17 48 17 246 0 138 -4 235 -10 247 -12 22 -68 27 -88 7z"/>
<path d="M2675 2306 c-33 -33 -37 -67 -33 -269 l3 -177 28 -27 c27 -28 29 -28
176 -31 127 -3 151 -1 165 13 9 9 16 25 16 34 0 36 -29 46 -149 51 l-116 5 -3
58 -3 57 90 0 c95 0 121 11 121 50 0 35 -38 50 -128 50 l-83 0 3 58 3 57 125
5 c124 5 125 5 134 32 18 52 1 58 -171 58 -149 0 -155 -1 -178 -24z"/>
<path d="M3160 2310 c-19 -19 -20 -33 -20 -248 0 -209 2 -230 18 -245 24 -22
55 -21 75 1 15 16 17 45 17 200 0 100 4 182 9 182 5 0 44 -79 87 -176 88 -198
108 -224 179 -224 27 0 51 7 66 19 24 19 24 22 27 241 3 247 -1 270 -56 270
-50 0 -52 -10 -52 -206 0 -101 -4 -185 -9 -188 -9 -6 -9 -6 -98 194 -80 179
-98 200 -170 200 -40 0 -58 -5 -73 -20z"/>
<path d="M3769 2301 l-29 -29 0 -202 c0 -119 4 -209 10 -221 6 -10 25 -26 42
-35 42 -22 203 -15 267 11 84 35 129 141 118 275 -7 85 -31 142 -73 179 -45
40 -90 51 -207 51 -96 0 -99 -1 -128 -29z m230 -74 c43 -21 63 -70 64 -150 0
-85 -15 -140 -46 -160 -32 -21 -120 -31 -146 -17 -20 10 -21 19 -21 163 0 106
4 157 12 165 16 16 106 15 137 -1z"/>
</g>
</svg>
